<svg version="1.1" id="Layer_1" xmlns="http://www.w3.org/2000/svg" xmlns:xlink="http://www.w3.org/1999/xlink" x="0px" y="0px"
	 width="100%" viewBox="0 0 695 894" enable-background="new 0 0 695 894" xml:space="preserve">

<path fill="#010101" opacity="1.000000" stroke="none" 
	d="
M219.100861,874.006409 
	C219.024216,858.064392 218.906464,842.122375 218.881012,826.180298 
	C218.846786,804.748108 218.883804,783.315735 218.942368,761.442200 
	C218.994507,761.000916 218.952301,761.069702 219.405518,760.929321 
	C232.114502,760.788879 244.370270,760.788879 257.022827,760.788879 
	C257.022827,786.401978 257.022827,811.468994 257.022827,836.583618 
	C358.740021,836.583618 460.051270,836.583618 561.811768,836.583618 
	C561.811768,811.200989 561.811768,786.142395 561.811768,761.091675 
	C574.869690,761.091675 587.477783,761.091675 600.062744,761.054077 
	C600.039612,761.016541 599.968506,760.964172 599.968506,760.964172 
	C599.917847,796.777222 599.867126,832.590271 599.816956,868.403320 
	C599.814209,870.376282 599.816589,872.349243 599.816589,874.952759 
	C473.306305,874.952759 347.107269,874.952759 220.340698,874.699097 
	C219.592743,874.232239 219.368637,874.085876 219.100861,874.006409 
z"/>
<path fill="#010101" opacity="1.000000" stroke="none" 
	d="
M142.977463,418.062775 
	C155.421707,418.062775 167.865936,418.062775 180.790497,418.062775 
	C180.790497,303.500275 180.790497,189.505661 180.790497,75.090179 
	C193.556885,75.090179 205.842453,75.090179 218.565979,75.049850 
	C219.003922,75.009521 218.946243,74.932556 218.917465,75.404770 
	C218.888687,215.105011 218.888687,354.333038 218.888687,493.693787 
	C205.933945,493.693787 193.401794,493.693787 180.622009,493.693787 
	C180.622009,481.066162 180.622009,468.779083 180.622009,455.921692 
	C167.841522,455.921692 155.298752,455.921692 143.078415,455.921692 
	C143.078415,442.878235 143.078415,430.411835 143.049591,417.971680 
	C143.020767,417.997925 142.977463,418.062775 142.977463,418.062775 
z"/>
<path fill="#020202" opacity="1.000000" stroke="none" 
	d="
M408.909821,265.562561 
	C446.872437,265.562561 484.835083,265.562561 523.302673,265.562561 
	C523.302673,278.288879 523.302673,290.686523 523.302673,303.682190 
	C548.989624,303.682190 574.181396,303.682190 599.828674,303.682190 
	C599.828674,316.565369 599.828674,328.851990 599.914673,341.575867 
	C600.000671,342.013153 600.066772,341.952484 599.595215,341.912964 
	C586.696838,341.873444 574.270020,341.873444 561.467285,341.873444 
	C561.467285,380.279327 561.467285,418.035339 561.467285,455.705811 
	C548.666138,455.705811 536.255066,455.705811 523.445923,455.705811 
	C523.445923,404.999695 523.445923,354.589661 523.445923,303.980743 
	C497.951813,303.980743 472.861969,303.980743 447.259552,303.980743 
	C447.259552,305.979523 447.259521,307.767059 447.259521,309.554596 
	C447.259521,339.049500 447.275604,368.544434 447.246826,398.039307 
	C447.240662,404.360046 447.072266,410.680634 446.780396,417.083313 
	C446.328613,417.317139 446.139160,417.526855 445.550476,417.875732 
	C433.179321,417.957001 421.271423,417.957001 409.152527,417.957001 
	C409.152527,415.270416 409.153717,413.290039 409.152344,411.309662 
	C409.118744,362.683075 409.084839,314.056519 409.006653,265.453491 
	C408.962341,265.477020 408.909821,265.562561 408.909821,265.562561 
z"/>
<path fill="#010101" opacity="1.000000" stroke="none" 
	d="
M409.018250,265.063416 
	C408.909821,265.562561 408.962341,265.477020 408.543762,265.549438 
	C383.200958,265.621826 358.276703,265.621826 332.855316,265.621826 
	C332.855316,316.717773 332.855316,367.261932 332.855316,417.637054 
	C319.949829,417.637054 307.547150,417.637054 294.998230,417.637054 
	C294.998230,395.656616 294.994171,374.006012 294.998962,352.355408 
	C295.019440,259.880096 295.042511,167.404785 295.033997,74.964569 
	C295.003357,74.999664 294.939301,75.067368 294.939301,75.067368 
	C307.411499,75.067368 319.883667,75.067368 332.851257,75.067368 
	C332.851257,125.841621 332.851257,176.374756 332.851257,227.368301 
	C358.395020,227.368301 383.449310,227.368301 409.126678,227.368301 
	C409.126678,240.067749 409.126678,252.316010 409.018250,265.063416 
z"/>
<path fill="#000000" opacity="1.000000" stroke="none" 
	d="
M637.935669,380.062286 
	C650.410522,380.062286 662.885376,380.062286 675.660034,380.062286 
	C675.660034,468.698883 675.660034,557.246826 675.660034,646.294617 
	C663.338745,646.294617 651.073486,646.294617 638.394775,646.146240 
	C637.981323,645.997864 638.062317,646.038452 637.985840,645.572876 
	C637.904785,557.880371 637.899536,470.653351 637.902832,383.426361 
	C637.902893,382.265625 638.011169,381.104889 638.031128,379.968567 
	C637.993286,379.993011 637.935669,380.062286 637.935669,380.062286 
z"/>
<path fill="#020202" opacity="1.000000" stroke="none" 
	d="
M66.027946,493.943207 
	C53.584534,493.943207 41.141121,493.943207 28.457958,493.943207 
	C28.457958,455.899353 28.457958,418.195801 28.457958,380.200928 
	C66.450432,380.200928 104.304672,380.200928 142.713684,380.200928 
	C142.713684,392.598328 142.713684,404.873230 142.845581,417.605469 
	C142.977463,418.062775 143.020767,417.997925 142.576401,417.995667 
	C117.032272,417.993408 91.932503,417.993408 66.342972,417.993408 
	C66.342972,419.978394 66.342979,421.598785 66.342979,423.219147 
	C66.342972,442.695007 66.366776,462.170898 66.323868,481.646667 
	C66.314751,485.782715 66.062370,489.918213 65.953438,494.030975 
	C65.984802,494.007965 66.027946,493.943207 66.027946,493.943207 
z"/>
<path fill="#030303" opacity="1.000000" stroke="none" 
	d="
M181.061569,684.961182 
	C170.928467,684.813721 160.795471,684.659302 150.662216,684.523682 
	C148.190033,684.490601 145.717026,684.518738 142.809479,684.518738 
	C142.809479,659.106934 142.809479,634.036621 142.809479,608.466125 
	C129.997772,608.466125 117.615486,608.466125 104.405022,608.466125 
	C104.405022,582.921082 104.405022,557.872131 104.196304,532.409546 
	C103.987587,531.995789 103.924370,532.042725 104.397934,532.038452 
	C117.314804,532.034180 129.758102,532.034180 142.646057,532.034180 
	C142.646057,557.640564 142.646057,582.709412 142.646057,608.263672 
	C155.489319,608.263672 167.892303,608.263672 180.966919,608.263672 
	C180.966919,634.188538 180.966919,659.627319 180.986572,685.036255 
	C181.006210,685.006409 181.061569,684.961182 181.061569,684.961182 
z"/>
<path fill="#030303" opacity="1.000000" stroke="none" 
	d="
M637.952759,645.962646 
	C637.924255,683.982544 637.924255,722.037598 637.924255,760.788818 
	C625.372192,760.788818 613.133301,760.788818 600.431519,760.876465 
	C599.968506,760.964172 600.039612,761.016541 599.933838,760.594849 
	C599.828064,722.395447 599.828064,684.617798 599.828064,646.038452 
	C612.845764,646.038452 625.454041,646.038452 638.062317,646.038452 
	C638.062317,646.038452 637.981323,645.997864 637.952759,645.962646 
z"/>
<path fill="#020202" opacity="1.000000" stroke="none" 
	d="
M219.027252,760.977295 
	C206.446503,760.953735 193.833038,760.953735 180.808395,760.953735 
	C180.808395,735.456055 180.808395,710.664734 180.934982,685.417236 
	C181.061569,684.961182 181.006210,685.006409 181.399033,684.789307 
	C194.057129,684.572266 206.322403,684.572266 218.952301,684.572266 
	C218.952301,710.465088 218.952301,735.767395 218.952301,761.069702 
	C218.952301,761.069702 218.994507,761.000916 219.027252,760.977295 
z"/>
<path fill="#000000" opacity="1.000000" stroke="none" 
	d="
M219.039246,75.042145 
	C219.074570,62.616634 219.074570,50.158493 219.074570,37.366318 
	C244.181015,37.366318 269.341949,37.366318 294.993530,37.366318 
	C294.993530,49.624104 294.993530,61.873352 294.966431,74.594986 
	C294.939301,75.067368 295.003357,74.999664 294.566101,75.037056 
	C269.067993,75.027153 244.007126,74.979851 218.946243,74.932556 
	C218.946243,74.932556 219.003922,75.009521 219.039246,75.042145 
z"/>
<path fill="#020202" opacity="1.000000" stroke="none" 
	d="
M599.970947,342.046753 
	C612.364258,342.080322 624.787231,342.080322 637.899902,342.080322 
	C637.899902,354.387817 637.899902,366.753021 637.917786,379.590271 
	C637.935669,380.062286 637.993286,379.993011 637.558105,379.959412 
	C624.741272,379.925812 612.359558,379.925812 600.066772,379.925812 
	C600.066772,366.822021 600.066772,354.387268 600.066772,341.952484 
	C600.066772,341.952484 600.000671,342.013153 599.970947,342.046753 
z"/>
<path fill="#030303" opacity="1.000000" stroke="none" 
	d="
M104.014450,531.967041 
	C91.626625,531.938232 79.211937,531.938232 66.283318,531.938232 
	C66.283318,519.370422 66.283318,507.114410 66.155632,494.400818 
	C66.027946,493.943207 65.984802,494.007965 66.426529,494.005432 
	C78.916626,494.069702 90.964981,494.136505 103.155945,494.393921 
	C103.537468,494.808380 103.818016,494.949402 104.298798,495.452606 
	C104.279724,507.945984 104.102051,519.994324 103.924370,532.042725 
	C103.924370,532.042725 103.987587,531.995789 104.014450,531.967041 
z"/>
<path fill="#030303" opacity="1.000000" stroke="none" 
	d="
M219.057648,874.277344 
	C219.368637,874.085876 219.592743,874.232239 219.876740,874.619995 
	C219.658340,874.712463 219.336380,874.630371 219.057648,874.277344 
z"/>
<path fill="#FFFFFF" opacity="1.000000" stroke="none" 
	d="
M104.397934,532.038452 
	C104.102051,519.994324 104.279724,507.945984 104.317459,495.142426 
	C103.789459,494.325928 103.401405,494.264618 103.013344,494.203308 
	C90.964981,494.136505 78.916626,494.069702 66.395172,494.028442 
	C66.062370,489.918213 66.314751,485.782715 66.323868,481.646667 
	C66.366776,462.170898 66.342972,442.695007 66.342979,423.219147 
	C66.342979,421.598785 66.342972,419.978394 66.342972,417.993408 
	C91.932503,417.993408 117.032272,417.993408 142.605225,417.969421 
	C143.078415,430.411835 143.078415,442.878235 143.078415,455.921692 
	C155.298752,455.921692 167.841522,455.921692 180.622009,455.921692 
	C180.622009,468.779083 180.622009,481.066162 180.622009,493.693787 
	C193.401794,493.693787 205.933945,493.693787 218.888687,493.693787 
	C218.888687,354.333038 218.888687,215.105011 218.917465,75.404770 
	C244.007126,74.979851 269.067993,75.027153 294.596771,75.001953 
	C295.042511,167.404785 295.019440,259.880096 294.998962,352.355408 
	C294.994171,374.006012 294.998230,395.656616 294.998230,417.637054 
	C307.547150,417.637054 319.949829,417.637054 332.855316,417.637054 
	C332.855316,367.261932 332.855316,316.717773 332.855316,265.621826 
	C358.276703,265.621826 383.200958,265.621826 408.588104,265.525879 
	C409.084839,314.056519 409.118744,362.683075 409.152344,411.309662 
	C409.153717,413.290039 409.152527,415.270416 409.152527,417.957001 
	C421.271423,417.957001 433.179321,417.957001 445.834412,417.927856 
	C446.713928,417.599579 446.846252,417.300446 446.978577,417.001312 
	C447.072266,410.680634 447.240662,404.360046 447.246826,398.039307 
	C447.275604,368.544434 447.259521,339.049500 447.259521,309.554596 
	C447.259521,307.767059 447.259552,305.979523 447.259552,303.980743 
	C472.861969,303.980743 497.951813,303.980743 523.445923,303.980743 
	C523.445923,354.589661 523.445923,404.999695 523.445923,455.705811 
	C536.255066,455.705811 548.666138,455.705811 561.467285,455.705811 
	C561.467285,418.035339 561.467285,380.279327 561.467285,341.873444 
	C574.270020,341.873444 586.696838,341.873444 599.595215,341.912964 
	C600.066772,354.387268 600.066772,366.822021 600.066772,379.925812 
	C612.359558,379.925812 624.741272,379.925812 637.595947,379.934998 
	C638.011169,381.104889 637.902893,382.265625 637.902832,383.426361 
	C637.899536,470.653351 637.904785,557.880371 637.985840,645.572876 
	C625.454041,646.038452 612.845764,646.038452 599.828064,646.038452 
	C599.828064,684.617798 599.828064,722.395447 599.956970,760.632385 
	C587.477783,761.091675 574.869690,761.091675 561.811768,761.091675 
	C561.811768,786.142395 561.811768,811.200989 561.811768,836.583618 
	C460.051270,836.583618 358.740021,836.583618 257.022827,836.583618 
	C257.022827,811.468994 257.022827,786.401978 257.022827,760.788879 
	C244.370270,760.788879 232.114502,760.788879 219.405518,760.929321 
	C218.952301,735.767395 218.952301,710.465088 218.952301,684.572266 
	C206.322403,684.572266 194.057129,684.572266 181.379395,684.819214 
	C180.966919,659.627319 180.966919,634.188538 180.966919,608.263672 
	C167.892303,608.263672 155.489319,608.263672 142.646057,608.263672 
	C142.646057,582.709412 142.646057,557.640564 142.646057,532.034180 
	C129.758102,532.034180 117.314804,532.034180 104.397934,532.038452 
z"/>
<path fill="#020202" opacity="1.000000" stroke="none" 
	d="
M446.780365,417.083313 
	C446.846252,417.300446 446.713928,417.599579 446.297668,417.846588 
	C446.139160,417.526855 446.328613,417.317139 446.780365,417.083313 
z"/>
<path fill="#030303" opacity="1.000000" stroke="none" 
	d="
M103.155945,494.393921 
	C103.401405,494.264618 103.789459,494.325928 104.158859,494.697418 
	C103.818016,494.949402 103.537468,494.808380 103.155945,494.393921 
z"/>
</svg>