<svg version="1.1" id="Layer_1" xmlns="http://www.w3.org/2000/svg" xmlns:xlink="http://www.w3.org/1999/xlink" x="0px" y="0px"
	 width="100%" viewBox="0 0 171 218" enable-background="new 0 0 171 218" xml:space="preserve">

<path fill="#000000" opacity="1.000000" stroke="none" 
	d="
M60.000893,180.000000 
	C53.885761,180.000000 48.270267,180.000000 42.332146,180.000000 
	C42.332146,171.844315 42.332146,164.284897 42.332146,156.122131 
	C52.755539,156.122131 62.991852,156.122131 73.607544,156.122131 
	C73.607544,123.974953 73.607544,92.425430 73.607544,60.273521 
	C63.401485,60.273521 53.163780,60.273521 42.468140,60.273521 
	C42.468140,52.004345 42.468140,44.325974 42.468140,36.023212 
	C54.719120,36.023212 66.825241,35.957169 78.927689,36.137577 
	C79.997383,36.153526 81.156097,37.674561 82.076454,38.677361 
	C83.997231,40.770187 88.273911,40.414761 90.040291,38.152885 
	C90.797066,37.183819 92.174995,36.112404 93.284538,36.097198 
	C104.275780,35.946575 115.272011,35.909832 126.260399,36.143257 
	C127.516853,36.169949 129.751556,37.994698 129.803619,39.069492 
	C130.131165,45.831890 129.969452,52.617977 129.969452,59.979019 
	C119.140251,59.979019 108.903374,59.979019 98.341873,59.979019 
	C98.341873,92.127548 98.341873,123.676720 98.341873,156.000000 
	C106.562569,156.000000 114.656685,155.998093 122.750809,156.000565 
	C129.992905,156.002777 129.994980,156.004898 129.999329,163.044006 
	C130.002686,168.488983 130.000000,173.933960 130.000000,180.000000 
	C119.438545,180.000000 109.489799,180.197662 99.556213,179.896027 
	C95.931473,179.785980 91.203850,182.198242 88.899490,176.545029 
	C88.701027,176.058121 84.388809,177.033600 82.092171,177.693787 
	C80.625130,178.115509 79.378296,179.829117 77.985268,179.890747 
	C72.166801,180.148209 66.330368,179.999695 60.000893,180.000000 
M115.422165,52.000000 
	C117.534294,52.000000 119.646423,52.000000 121.742035,52.000000 
	C121.742035,49.076588 121.742035,46.670879 121.742035,44.138733 
	C113.862366,44.138733 106.239677,44.138733 98.471107,44.138733 
	C98.124191,45.446701 97.779785,46.745220 97.470741,47.910393 
	C89.612869,47.910393 82.127159,47.910393 74.451660,47.910393 
	C74.114845,46.570377 73.787445,45.267792 73.528496,44.237572 
	C65.514030,44.237572 57.899063,44.237572 50.237930,44.237572 
	C50.237930,46.886204 50.237930,49.291222 50.237930,52.000000 
	C59.107323,52.000000 67.749771,52.208885 76.374748,51.911358 
	C80.649376,51.763901 82.127007,52.881069 82.102058,57.430229 
	C81.914711,91.595406 82.001938,125.762077 81.992409,159.928284 
	C81.992050,161.203613 81.880142,162.478897 81.802650,164.128052 
	C71.060684,164.128052 60.642288,164.128052 50.264915,164.128052 
	C50.264915,166.937531 50.264915,169.341904 50.264915,171.867340 
	C58.152149,171.867340 65.775131,171.867340 73.517174,171.867340 
	C73.876915,170.536758 74.226280,169.244522 74.562752,168.000000 
	C80.919167,168.000000 86.932564,167.767624 92.911072,168.122650 
	C95.081764,168.251556 97.169159,169.783051 99.294563,170.674591 
	C99.166878,171.033295 99.039192,171.392014 98.911507,171.750732 
	C106.521851,171.750732 114.132202,171.750732 121.748711,171.750732 
	C121.748711,169.088989 121.748711,166.683548 121.748711,163.886292 
	C111.091049,163.886292 100.677795,163.886292 90.262177,163.886292 
	C90.262177,126.411186 90.262177,89.339600 90.262177,52.000000 
	C98.493164,52.000000 106.464767,52.000000 115.422165,52.000000 
z"/>
<path fill="#FFFFFF" opacity="1.000000" stroke="none" 
	d="
M114.929260,52.000000 
	C106.464767,52.000000 98.493164,52.000000 90.262177,52.000000 
	C90.262177,89.339600 90.262177,126.411186 90.262177,163.886292 
	C100.677795,163.886292 111.091049,163.886292 121.748711,163.886292 
	C121.748711,166.683548 121.748711,169.088989 121.748711,171.750732 
	C114.132202,171.750732 106.521851,171.750732 98.911507,171.750732 
	C99.039192,171.392014 99.166878,171.033295 99.294563,170.674591 
	C97.169159,169.783051 95.081764,168.251556 92.911072,168.122650 
	C86.932564,167.767624 80.919167,168.000000 74.562752,168.000000 
	C74.226280,169.244522 73.876915,170.536758 73.517174,171.867340 
	C65.775131,171.867340 58.152149,171.867340 50.264915,171.867340 
	C50.264915,169.341904 50.264915,166.937531 50.264915,164.128052 
	C60.642288,164.128052 71.060684,164.128052 81.802650,164.128052 
	C81.880142,162.478897 81.992050,161.203613 81.992409,159.928284 
	C82.001938,125.762077 81.914711,91.595406 82.102058,57.430229 
	C82.127007,52.881069 80.649376,51.763901 76.374748,51.911358 
	C67.749771,52.208885 59.107323,52.000000 50.237930,52.000000 
	C50.237930,49.291222 50.237930,46.886204 50.237930,44.237572 
	C57.899063,44.237572 65.514030,44.237572 73.528496,44.237572 
	C73.787445,45.267792 74.114845,46.570377 74.451660,47.910393 
	C82.127159,47.910393 89.612869,47.910393 97.470741,47.910393 
	C97.779785,46.745220 98.124191,45.446701 98.471107,44.138733 
	C106.239677,44.138733 113.862366,44.138733 121.742035,44.138733 
	C121.742035,46.670879 121.742035,49.076588 121.742035,52.000000 
	C119.646423,52.000000 117.534294,52.000000 114.929260,52.000000 
z"/>
</svg>